<?xml version="1.0" encoding="UTF-8"?>
<svg id="a" data-name="Livello 1" xmlns="http://www.w3.org/2000/svg" xmlns:xlink="http://www.w3.org/1999/xlink" viewBox="0 0 215.34 206.51">
  <defs>
    <linearGradient id="b" x1="179.74" y1="853.61" x2="179.74" y2="782.5" gradientTransform="translate(0 -758)" gradientUnits="userSpaceOnUse">
      <stop offset="0" stop-color="#1d93d2"/>
      <stop offset="1" stop-color="#38b0e3"/>
    </linearGradient>
  </defs>
  <g>
    <path d="m177.94,93.01c2.7-.1,5.4-.2,8-.4-1.1,5.1-1.9,10.3-5.3,14.6-.5.6-1,1.3-1.6,1.7-2.5,1.4-3.8,3.8-5.1,6.3-9.3,16.7-23,28.4-40.9,35.2-1.7.7-3.6,1.1-5.4,1.5-1.8.4-3.7.6-5.7.9v36.4c0,6-2.2,11-7,14.6-2.3,1.8-5.1,2.7-8.1,2.7H35.14c-2.6,0-4.9-.8-7.2-2.1-.9-.5-1.9-.8-2.8-.8-3.4-.1-6.8-.2-10.2,0-6.9.4-12.5-4.5-14.2-10.9-.4-1.7-.7-3.4-.7-5.2-.1-10.1,0-20.3,0-30.4,0-13.5,11.5-26.5,24.9-28.1,1.9-.2,3.9-.4,5.8-.4,27.7,0,55.4-.2,83.1.1,11.1.1,20.4-3.5,28.3-10.9,4.2-3.9,7.7-8.5,11.6-12.7,1.2-1.3,1.6-2.6,1.4-4.6-.5-4.5.7-8.9,1.7-13.2.2-.7.1-.3.2-1.1,2.5,2.5,8.1,3.9,7.1,3.7-.5,2.5-1.2,4.8-1.5,7.2-.2,1.4-.1,2.9.3,4.2.8,2.7,3.4,4.4,6.2,4.4s5.6-1.8,6.6-4.8c.9-2.5,1.5-5.2,2.2-7.9ZM27.34,136.61c0,.6-.1.8-.1,1,0,17.5-.1,34.9,0,52.4,0,4.8,3.8,9,9.1,9,22.7-.1,45.5-.2,68.2,0,6.5.1,9.9-4.3,9.9-9.9v-50.8c0-.6-.1-1.2-.1-1.8-29,.1-58,.1-87,.1Zm-7.3,2.2c-7.4,4.1-12,9.9-12.3,18.1-.4,10.8-.1,21.6-.1,32.4,0,3.3,2.2,6,5.5,6.5,2.6.4,5.3.3,7.5.4-.2-3.9-.5-7.5-.5-11.2-.1-7.5,0-14.9,0-22.4-.1-7.8-.1-15.6-.1-23.8Zm102,6.3c13.4.4,39.4-18.6,44.3-32.2-2.2-1-4.3-2-6.5-3.1-9.8,12.8-21.3,23.2-37.8,26.3v9Z" style="fill: #512bd4;"/>
    <path d="m74.74,24.11v9.8c.5,0,1.1.1,1.6.1,9.5.1,18.9,0,28.4.2,11.3.3,21,9.3,22.3,20.5.3,2.4.3,4.8.5,6.8,2.6.9,5.3,1.5,7.6,2.8,3.3,1.8,4.6,5,4.6,8.7.1,4.7,0,9.3,0,14,0,6.4-4.8,11.3-11.1,11.5-.4,0-.7,0-.6,0-1,3.8-1.4,7.7-2.9,11.1-3.7,8.7-10.6,13.5-20,13.6-22.6.2-45.2.1-67.9,0-11.5,0-21.4-9.1-22.7-20.5-.2-1.3-.3-2.6-.4-4.1-1-.1-2.1-.2-3.2-.5-5.4-1.2-8.6-5.2-8.7-10.8v-14.2c0-6.4,4.5-10.9,10.9-11.1.3,0,.6,0,1-.1.2-2.6.2-5.2.5-7.8.8-9.7,8.5-18.1,18.1-19.8,1.9-.3,3.8-.5,5.8-.5h28.2q.1,0,.3-.1v-9.9c-3.5-1.4-6.2-3.9-7.6-7.7-.9-2.5-.9-5-.2-7.5C61.04,3.01,65.64-.19,71.64,0c5.2.2,10,4.1,11.2,9.5.8,4.5-.2,11-8.1,14.6Zm-3.7,91.6h0c10.8,0,21.6.1,32.4,0,2.2,0,4.6-.2,6.6-1,6.5-2.6,9.5-7.9,9.6-14.6.2-14.4.1-28.7,0-43.1-.1-8.4-7.1-15.3-15.5-15.3H36.84c-8.3,0-15.1,6.9-15.1,15.2v43.1c0,1.4.2,2.9.6,4.3,1.9,6.9,7.7,11.3,14.8,11.4,11.4.1,22.6,0,33.9,0Z" style="fill: #512bd4;"/>
    <path d="m70.94,93.81c5.5,0,10.9.1,16.4,0,2.7-.1,4,1.6,4.2,3.6.2,2.1-1.7,3.7-4.2,3.7h-32.7c-2.5,0-4.1-1.4-4.1-3.6-.1-2.1,1.7-3.8,4.2-3.7,5.3.1,10.8,0,16.2,0Z" style="fill: #512bd4;"/>
    <path d="m91.24,81.01c-4.6,0-8.2-3.7-8.2-8.4.1-4.8,3.6-8.4,8.4-8.3,4.6,0,8.4,3.8,8.4,8.4.2,4.7-3.6,8.3-8.6,8.3Z" style="fill: #512bd4;"/>
    <path d="m50.34,64.31c4.7,0,8.2,3.7,8.2,8.5s-3.8,8.2-8.6,8.2c-4.5-.1-8.1-3.9-8.1-8.5,0-4.6,3.7-8.2,8.5-8.2Z" style="fill: #512bd4;"/>
  </g>
  <circle cx="179.74" cy="60.01" r="35.6" style="fill: url(#b);"/>
  <path d="m168.24,62.61l4.2,11.7s.5,1.1,1.1,1.1,9-8.7,9-8.7l9.3-18-23.5,11-.1,2.9Z" style="fill: #c8daea;"/>
  <path d="m173.84,65.61l-.8,8.6s-.3,2.6,2.3,0,5.2-4.7,5.2-4.7" style="fill: #a9c6d8;"/>
  <path d="m168.34,63.01l-8.7-2.8s-1-.4-.7-1.4c.1-.2.2-.4.6-.7,1.9-1.3,35.6-13.4,35.6-13.4,0,0,1-.3,1.5-.1.3.1.5.3.6.6s.1.5.1.8c0,.2,0,.4-.1.8-.2,3.3-6.3,28-6.3,28,0,0-.4,1.4-1.7,1.5-.7,0-1.3-.2-1.8-.7-2.6-2.2-11.5-8.2-13.5-9.5-.1-.1-.1-.2-.2-.3,0-.1.1-.3.1-.3,0,0,15.5-13.8,15.9-15.3,0-.1-.1-.2-.3-.1-1,.4-18.9,11.7-20.9,12.9.1,0-.1,0-.2,0Z" style="fill: #fff;"/>
</svg>