<?xml version="1.0" encoding="UTF-8"?><svg id="a" xmlns="http://www.w3.org/2000/svg" width="1000" height="1000" xmlns:xlink="http://www.w3.org/1999/xlink" viewBox="0 0 1000 1000"><defs><linearGradient id="c" x1="16333.3" y1="-19349.47" x2="16333.3" y2="-17911.94" gradientTransform="translate(-2472.28 -2995.05) scale(.2 -.2)" gradientUnits="userSpaceOnUse"><stop offset="0" stop-color="#1d93d2"/><stop offset="1" stop-color="#38b0e3"/></linearGradient></defs><g><circle cx="277.29" cy="378.44" r="33.71" style="fill:#512bd4;"/><path d="m441.85,411.92c18.49,0,33.47-14.99,33.47-33.48s-14.99-33.47-33.47-33.47-33.47,14.99-33.47,33.47,14.99,33.48,33.47,33.48Z" style="fill:#512bd4;"/><path d="m439.27,446.57c-8.4,0-15.21,6.81-15.21,15.21v3.98h-131.38l.05-3.79c.1-8.4-6.63-15.29-15.03-15.4h-.18c-8.32,0-15.11,6.69-15.21,15.03l-.23,19.19c-.05,4.07,1.53,7.99,4.39,10.88s6.76,4.51,10.82,4.51h161.99c8.4,0,15.21-6.81,15.21-15.21v-19.19c0-8.4-6.81-15.21-15.21-15.21Z" style="fill:#512bd4;"/><path d="m817.31,452.9l-30.4-1.44c-.85,17.8-8,41.16-21.74,50.42-6.79,4.55-14.81,5.17-24.48,1.73-5.03-1.76-8.18-4.63-10.22-9.28-7.59-17.34,3.43-50.6,7.86-60.9l-27.89-12.14c-2.04,4.66-17.62,42.02-11.49,73.15-58.71,85.84-90.11,103.58-179.15,103.58H196.77c-.06,0-.12.02-.18.02v-.02c-44.34.55-128.79,24.85-131.15,112.88-1.7,63.34-1.3,74.52-.59,94.82.27,7.52.58,16.32.83,29.69.4,21.4,8.28,38.82,23.42,51.8,23.64,20.28,60.12,24.14,84.48,24.14,12.4,0,21.27-.97,24.06-1.3h322.17c32.27,0,58.53-26.27,58.53-58.52v-156.72c102.09-17.61,165.91-97.85,219.55-182.77l-.14-.09c12.96-17.5,18.72-41.02,19.57-59.05ZM96.1,834.84c-.26-13.6-.57-22.54-.85-30.2-.69-19.68-1.07-30.54.61-92.93.99-37.26,21.78-57.73,44.24-69.11-1.11,4.49-1.86,9.1-1.86,13.93v194.99c0,9.82,2.66,18.94,6.95,27.07-13.72-2.31-27.13-6.61-36.33-14.52-8.36-7.18-12.54-16.73-12.77-29.24Zm451.78,16.69c0,15.48-12.6,28.07-28.08,28.07H196.77c-15.49,0-28.09-12.6-28.09-28.07v-194.99c0-15.46,12.59-28.04,28.05-28.06.05,0,.22,0,.26,0h322.82c15.49,0,28.08,12.6,28.08,28.07v194.99Zm30.45-187.54v-7.46c0-11.33-3.38-21.82-8.98-30.79,61.82-7.86,98.34-34.62,146.31-101.99,4.33,3.6,9.25,6.57,14.91,8.56,5.46,1.91,10.45,2.82,15.21,3.35-41.1,58.86-92.3,113.35-167.46,128.33Z" style="fill:#512bd4;"/><path d="m115.53,475.82h22.47c.08,0,.15-.05.24-.05v13.15c0,49.81,40.53,90.37,90.35,90.37h264.98c49.82,0,90.38-40.55,90.38-90.37v-9.08c.73.06,1.35.42,2.09.42h22.47c14.48,0,26.22-11.74,26.22-26.22v-91.76c0-14.48-11.74-26.22-26.22-26.22h-22.47c-.74,0-1.36.36-2.09.42v-24.3c0-49.82-40.55-90.35-90.38-90.35h-117.27v-41.36c18.6-6.36,32.07-23.8,32.07-44.56,0-26.11-21.17-47.28-47.29-47.28s-47.29,21.17-47.29,47.28c0,20.76,13.47,38.2,32.08,44.56v41.35h-117.28c-49.82,0-90.35,40.53-90.35,90.35v19.48c-.08,0-.15-.05-.24-.05h-22.47c-14.48,0-26.22,11.74-26.22,26.22v91.76c0,14.48,11.74,26.22,26.22,26.22Zm53.14-163.62c0-33.04,26.88-59.93,59.93-59.93h264.98c33.04,0,59.93,26.88,59.93,59.93v176.73c0,33.03-26.88,59.92-59.93,59.92H228.6c-33.04,0-59.93-26.88-59.93-59.92v-176.73Z" style="fill:#512bd4;"/></g><g id="b"><circle cx="794.38" cy="326.94" r="141.39" style="fill:url(#c);"/><path d="m748.03,337.01l15.45,46.35s2.57,5.38,5.38,5.38,36.05-33.47,36.05-33.47l36.05-72.1-92.7,43.77v10.3h-.23v-.23Z" style="fill:#c8daea;"/><path d="m768.63,349.88l-2.57,33.47s0,10.3,10.3,0c10.3-10.3,20.6-18.02,20.6-18.02" style="fill:#a9c6d8;"/><path d="m748.03,339.58l-36.05-12.87s-5.38-2.57-2.57-5.38c0,0,0-2.57,2.57-2.57,7.72-5.38,141.39-53.84,141.39-53.84h5.38s2.57,0,2.57,2.57v5.38c0,12.87-25.75,110.49-25.75,110.49,0,0-2.57,5.38-7.72,5.38-2.57,0-5.38,0-7.72-2.57-10.3-7.72-46.35-33.47-53.84-38.86h0s61.8-53.84,64.14-61.8h0c-2.57,2.57-74.44,48.92-82.4,53.84h0v.23Z" style="fill:#fff;"/></g></svg>