<?xml version="1.0" encoding="UTF-8"?><svg xmlns="http://www.w3.org/2000/svg" width="40" height="40" xmlns:xlink="http://www.w3.org/1999/xlink" viewBox="0 0 40 40"><defs><linearGradient id="c" x1="12522.65" y1="16155.83" x2="12522.65" y2="16094.42" gradientTransform="translate(-2472.28 -3195.05) scale(.2)" gradientUnits="userSpaceOnUse"><stop offset="0" stop-color="#1d93d2"/><stop offset="1" stop-color="#38b0e3"/></linearGradient></defs><g id="a"><rect x="4.87" y="8.87" width="17.74" height="13.97" rx="3.21" ry="3.21" style="fill:none; stroke:#512bd4; stroke-linecap:round; stroke-linejoin:round; stroke-width:1.3px;"/><circle cx="10.16" cy="14.91" r="1.44" style="fill:#512bd4;"/><circle cx="17.19" cy="14.91" r="1.43" style="fill:#512bd4;"/><line x1="13.74" y1="8.87" x2="13.74" y2="6.35" style="fill:none; stroke:#512bd4; stroke-width:1.3px;"/><circle cx="13.74" cy="4.55" r="2.02" style="fill:#512bd4;"/><rect x="4.87" y="24.94" width="17.5" height="12.03" rx="1.85" ry="1.85" style="fill:none; stroke:#512bd4; stroke-linecap:round; stroke-linejoin:round; stroke-width:1.3px;"/><path d="m6.72,24.94s-4.85.06-4.96,4.19c-.1,3.71-.03,3.2.01,5.29.06,3.21,4.95,2.55,4.95,2.55" style="fill:none; stroke:#512bd4; stroke-width:1.3px;"/><polyline points="10.17 18.47 10.16 19.29 17.08 19.29 17.08 18.47" style="fill:none; stroke:#512bd4; stroke-linecap:round; stroke-linejoin:round; stroke-width:1.3px;"/><path d="m20.52,24.94c4.17,0,5.69-1,8.35-4.94" style="fill:none; stroke:#512bd4; stroke-width:1.3px;"/><path d="m22.37,27.87c4.66-.53,7.37-4.26,9.48-7.6" style="fill:none; stroke:#512bd4; stroke-width:1.3px;"/><path d="m29.26,17s-1.4,3.21.48,3.87,2.77-1.32,2.84-2.81" style="fill:none; stroke:#512bd4; stroke-width:1.3px;"/><rect x="22.23" y="13.1" width="3.2" height="6.16" rx="1.12" ry="1.12" style="fill:#512bd4;"/><rect x="2.13" y="12.91" width="3.2" height="6.16" rx="1.12" ry="1.12" style="fill:#512bd4;"/></g><g id="b"><circle cx="32.25" cy="12.71" r="6.04" style="fill:url(#c);"/><path d="m30.27,13.14l.66,1.98s.11.23.23.23,1.54-1.43,1.54-1.43l1.54-3.08-3.96,1.87v.44h-.01Z" style="fill:#c8daea;"/><path d="m31.15,13.69l-.11,1.43s0,.44.44,0,.88-.77.88-.77" style="fill:#a9c6d8;"/><path d="m30.27,13.25l-1.54-.55s-.23-.11-.11-.23c0,0,0-.11.11-.11.33-.23,6.04-2.3,6.04-2.3h.23s.11,0,.11.11v.23c0,.55-1.1,4.72-1.1,4.72,0,0-.11.23-.33.23-.11,0-.23,0-.33-.11-.44-.33-1.98-1.43-2.3-1.66h0s2.64-2.3,2.74-2.64h0c-.11.11-3.18,2.09-3.52,2.3h0Z" style="fill:#fff;"/></g></svg>