<?xml version="1.0" encoding="UTF-8"?><svg id="a" xmlns="http://www.w3.org/2000/svg" width="40" height="40" xmlns:xlink="http://www.w3.org/1999/xlink" viewBox="0 0 40 40"><defs><linearGradient id="c" x1="14438.65" y1="-18029.83" x2="14438.65" y2="-17968.42" gradientTransform="translate(-2855.48 -3569.85) scale(.2 -.2)" gradientUnits="userSpaceOnUse"><stop offset="0" stop-color="#1d93d2"/><stop offset="1" stop-color="#38b0e3"/></linearGradient></defs><g><circle cx="10.16" cy="14.91" r="1.44" style="fill:#512bd4;"/><path d="m17.19,16.34c.79,0,1.43-.64,1.43-1.43s-.64-1.43-1.43-1.43-1.43.64-1.43,1.43.64,1.43,1.43,1.43Z" style="fill:#512bd4;"/><path d="m17.08,17.82c-.36,0-.65.29-.65.65v.17h-5.61v-.16c0-.36-.28-.65-.64-.66h0c-.36,0-.65.29-.65.64v.82c-.01.17.06.34.18.46s.29.19.46.19h6.92c.36,0,.65-.29.65-.65v-.82c0-.36-.29-.65-.65-.65Z" style="fill:#512bd4;"/><path d="m33.23,18.09l-1.3-.06c-.04.76-.34,1.76-.93,2.15-.29.19-.63.22-1.05.07-.21-.08-.35-.2-.44-.4-.32-.74.15-2.16.34-2.6l-1.19-.52c-.09.2-.75,1.8-.49,3.12-2.51,3.67-3.85,4.42-7.65,4.42H6.72s0,0,0,0h0c-1.89.02-5.5,1.06-5.6,4.82-.07,2.71-.06,3.18-.03,4.05.01.32.02.7.04,1.27.02.91.35,1.66,1,2.21,1.01.87,2.57,1.03,3.61,1.03.53,0,.91-.04,1.03-.06h13.76c1.38,0,2.5-1.12,2.5-2.5v-6.7c4.36-.75,7.09-4.18,9.38-7.81h0c.55-.75.8-1.76.84-2.53ZM2.42,34.41c-.01-.58-.02-.96-.04-1.29-.03-.84-.05-1.3.03-3.97.04-1.59.93-2.47,1.89-2.95-.05.19-.08.39-.08.59v8.33c0,.42.11.81.3,1.16-.59-.1-1.16-.28-1.55-.62-.36-.31-.54-.71-.55-1.25Zm19.3.71c0,.66-.54,1.2-1.2,1.2H6.72c-.66,0-1.2-.54-1.2-1.2v-8.33c0-.66.54-1.2,1.2-1.2,0,0,0,0,.01,0h13.79c.66,0,1.2.54,1.2,1.2v8.33Zm1.3-8.01v-.32c0-.48-.14-.93-.38-1.32,2.64-.34,4.2-1.48,6.25-4.36.19.15.4.28.64.37.23.08.45.12.65.14-1.76,2.51-3.94,4.84-7.15,5.48Z" style="fill:#512bd4;"/><path d="m3.25,19.07h.96s0,0,.01,0v.56c0,2.13,1.73,3.86,3.86,3.86h11.32c2.13,0,3.86-1.73,3.86-3.86v-.39s.06.02.09.02h.96c.62,0,1.12-.5,1.12-1.12v-3.92c0-.62-.5-1.12-1.12-1.12h-.96s-.06.02-.09.02v-1.04c0-2.13-1.73-3.86-3.86-3.86h-5.01v-1.77c.79-.27,1.37-1.02,1.37-1.9,0-1.12-.9-2.02-2.02-2.02s-2.02.9-2.02,2.02c0,.89.58,1.63,1.37,1.9v1.77h-5.01c-2.13,0-3.86,1.73-3.86,3.86v.83s0,0-.01,0h-.96c-.62,0-1.12.5-1.12,1.12v3.92c0,.62.5,1.12,1.12,1.12Zm2.27-6.99c0-1.41,1.15-2.56,2.56-2.56h11.32c1.41,0,2.56,1.15,2.56,2.56v7.55c0,1.41-1.15,2.56-2.56,2.56h-11.32c-1.41,0-2.56-1.15-2.56-2.56v-7.55Z" style="fill:#512bd4;"/></g><g id="b"><circle cx="32.25" cy="12.71" r="6.04" style="fill:url(#c);"/><path d="m30.27,13.14l.66,1.98s.11.23.23.23,1.54-1.43,1.54-1.43l1.54-3.08-3.96,1.87v.44h-.01Z" style="fill:#c8daea;"/><path d="m31.15,13.69l-.11,1.43s0,.44.44,0,.88-.77.88-.77" style="fill:#a9c6d8;"/><path d="m30.27,13.25l-1.54-.55s-.23-.11-.11-.23c0,0,0-.11.11-.11.33-.23,6.04-2.3,6.04-2.3h.23s.11,0,.11.11v.23c0,.55-1.1,4.72-1.1,4.72,0,0-.11.23-.33.23-.11,0-.23,0-.33-.11-.44-.33-1.98-1.43-2.3-1.66h0s2.64-2.3,2.74-2.64h0c-.11.11-3.18,2.09-3.52,2.3h0Z" style="fill:#fff;"/></g></svg>